<svg width="26" height="26" viewBox="0 0 26 26" fill="none" xmlns="http://www.w3.org/2000/svg">
<path d="M0.928785 11.2137C0.764307 11.3781 0.662301 11.6055 0.662623 11.8565V14.4277C0.662623 14.9304 1.06956 15.3373 1.57159 15.3367L10.9475 15.3367L10.9475 24.7126C10.9475 25.2153 11.3545 25.6222 11.8565 25.6216L14.4277 25.6216C14.9304 25.6216 15.3374 25.2147 15.3367 24.7126L15.3367 15.3367L24.7127 15.3367C25.2147 15.3373 25.6223 14.9297 25.6216 14.4277V11.8565C25.6216 11.3538 25.2147 10.9469 24.7127 10.9475L15.3367 10.9475L15.3367 1.57155C15.3374 1.06952 14.9298 0.661935 14.4277 0.662579L11.8565 0.662578C11.3538 0.662578 10.9469 1.06952 10.9475 1.57155L10.9475 10.9475L1.57159 10.9475C1.32026 10.9475 1.09326 11.0492 0.928785 11.2137Z" fill="white"/>
</svg>
