<svg width="20" height="20" viewBox="0 0 20 20" fill="none" xmlns="http://www.w3.org/2000/svg">
<path d="M2.72746 0.000255738C2.49485 0.000255738 2.26199 0.0888613 2.08472 0.266584L0.266584 2.08472C-0.0888614 2.44016 -0.0888614 3.01566 0.266584 3.3702L6.89639 10L0.266584 16.6298C-0.0888614 16.9852 -0.0888614 17.5607 0.266584 17.9153L2.08472 19.7334C2.44016 20.0889 3.01566 20.0889 3.3702 19.7334L10 13.1036L16.6298 19.7334C16.9843 20.0889 17.5607 20.0889 17.9153 19.7334L19.7334 17.9153C20.0889 17.5598 20.0889 16.9843 19.7334 16.6298L13.1036 10L19.7334 3.3702C20.0889 3.01566 20.0889 2.43926 19.7334 2.08472L17.9153 0.266584C17.5598 -0.0888614 16.9843 -0.0888614 16.6298 0.266584L10 6.89639L3.3702 0.266584C3.19248 0.0888613 2.96007 0.000255738 2.72746 0.000255738Z" fill="#E34502"/>
</svg>
