<svg width="25" height="25" viewBox="0 0 25 25" fill="none" xmlns="http://www.w3.org/2000/svg">
<path d="M0.279905 11.9403C0.279905 12.1179 0.350936 12.2601 0.493081 12.3667C0.652996 12.4733 0.821836 12.5 0.999518 12.4467L9.95476 9.38163C10.168 9.31056 10.2924 9.16841 10.3278 8.95519C10.3633 8.74197 10.2924 8.57318 10.1146 8.4488L8.00892 6.95627L7.66248 6.68974C8.28432 6.19223 8.98173 5.80577 9.75465 5.53036C10.5276 5.25496 11.3494 5.11725 12.22 5.11725C13.2328 5.11725 14.1879 5.3127 15.0852 5.70361C15.9825 6.09451 16.7643 6.62311 17.4306 7.28942C18.0969 7.95573 18.6255 8.73753 19.0164 9.63483C19.4073 10.5321 19.6027 11.4872 19.6027 12.5C19.6027 13.5127 19.4073 14.4677 19.0164 15.3651C18.6255 16.2624 18.0969 17.0442 17.4306 17.7105C16.7643 18.3769 15.9825 18.9054 15.0852 19.2963C14.1879 19.6873 13.2328 19.8827 12.22 19.8827C10.9762 19.8827 9.81239 19.5984 8.72857 19.0298C7.64467 18.4612 6.76518 17.6616 6.08999 16.6312C5.98334 16.4711 5.83679 16.3735 5.65005 16.338C5.46362 16.3025 5.29917 16.338 5.15716 16.4446L2.01205 18.63C1.88776 18.7012 1.80784 18.8344 1.77218 19.03C1.71883 19.1721 1.74557 19.323 1.85213 19.4829C2.43853 20.3536 3.11372 21.1309 3.8778 21.815C4.64188 22.4991 5.46806 23.0767 6.35647 23.5474C7.2448 24.0183 8.18647 24.3781 9.18158 24.6269C10.1767 24.8756 11.1894 25 12.22 25C13.9435 25 15.5649 24.6712 17.084 24.0138C18.6032 23.3564 19.927 22.4635 21.0552 21.3352C22.1835 20.2069 23.0764 18.8832 23.7338 17.364C24.3913 15.8448 24.72 14.2235 24.72 12.5C24.72 10.7764 24.3913 9.15509 23.7339 7.6359C23.0765 6.11672 22.1836 4.79298 21.0553 3.6647C19.927 2.53642 18.6033 1.64356 17.0841 0.986137C15.5649 0.328712 13.9436 0 12.2201 0C10.4966 0 8.88413 0.328712 7.38272 0.986137C5.88126 1.64356 4.56201 2.54086 3.4248 3.67803L3.26488 3.54476L1.15926 2.05223C0.999346 1.92785 0.81291 1.91009 0.599561 1.99893C0.40411 2.1233 0.306385 2.28322 0.306385 2.47867L0.279905 11.9403Z" fill="#FF8756"/>
</svg>
