<svg width="22" height="22" viewBox="0 0 22 22" fill="none" xmlns="http://www.w3.org/2000/svg">
<path d="M6.29163 15.9086L8.22862 15.3498L19.8912 3.54748C19.9832 3.45321 20.0344 3.32654 20.0338 3.19482C20.0332 3.06311 19.9808 2.93692 19.8879 2.84352L19.1895 2.13736C19.1443 2.09099 19.0904 2.05406 19.0309 2.02875C18.9713 2.00344 18.9073 1.99025 18.8426 1.98994C18.7779 1.98963 18.7138 2.00222 18.654 2.02696C18.5942 2.05171 18.5399 2.08812 18.4943 2.13406L6.8625 13.9056L6.29053 15.9075L6.29163 15.9086ZM20.5721 0.738245L21.2706 1.4455C22.2341 2.42115 22.2429 3.99515 21.2882 4.9609L9.27026 17.124L5.1301 18.3163C4.87733 18.3871 4.60682 18.3546 4.37792 18.2262C4.14903 18.0977 3.98045 17.8837 3.90917 17.6311C3.85614 17.4494 3.85537 17.2565 3.90697 17.0745L5.1114 12.8507L17.0974 0.719546C17.3253 0.490053 17.5966 0.308238 17.8956 0.184705C18.1945 0.0611714 18.515 -0.00160691 18.8384 3.12523e-05C19.1619 0.00166941 19.4817 0.0676911 19.7794 0.194246C20.077 0.3208 20.3465 0.505355 20.5721 0.737145V0.738245ZM7.90194 2.00647C8.44751 2.00647 8.88968 2.45414 8.88968 3.00631C8.89055 3.13684 8.86568 3.26626 8.8165 3.38717C8.76732 3.50808 8.69479 3.61811 8.60305 3.71097C8.51132 3.80382 8.40218 3.87769 8.28187 3.92834C8.16157 3.97899 8.03247 4.00543 7.90194 4.00615H3.95097C2.85983 4.00615 1.97548 4.9015 1.97548 6.00474V18.0006C1.97548 19.105 2.85983 20.0003 3.95097 20.0003H15.8039C16.895 20.0003 17.7805 19.105 17.7805 18.0006V14.0024C17.7805 13.4502 18.2226 13.0025 18.7682 13.0025C19.3138 13.0025 19.7559 13.4502 19.7559 14.0035V18.0006C19.7559 20.2093 17.9861 22 15.8039 22H3.95097C1.7687 22 0 20.2093 0 18.0006V6.00474C0 3.79717 1.7687 2.00647 3.95097 2.00647H7.90194Z" fill="#00A0DA"/>
</svg>
